<?xml version="1.0" encoding="UTF-8" standalone="no"?>
<svg
   xmlns:dc="http://purl.org/dc/elements/1.1/"
   xmlns:cc="http://creativecommons.org/ns#"
   xmlns:rdf="http://www.w3.org/1999/02/22-rdf-syntax-ns#"
   xmlns:svg="http://www.w3.org/2000/svg"
   xmlns="http://www.w3.org/2000/svg"
   xmlns:xlink="http://www.w3.org/1999/xlink"
   id="SVGRoot"
   version="1.1"
   viewBox="0 0 1920 1080"
   height="1080px"
   width="1920px">
  <defs
     id="defs1382">
    <linearGradient
       id="linearGradient4894">
      <stop
         style="stop-color:#0cc2c0;stop-opacity:1"
         offset="0"
         id="stop4890" />
      <stop
         style="stop-color:#ab12f0;stop-opacity:0.75686276"
         offset="1"
         id="stop4892" />
    </linearGradient>
    <linearGradient
       id="linearGradient4882">
      <stop
         id="stop4878"
         offset="0"
         style="stop-color:#ffdd55;stop-opacity:1" />
      <stop
         id="stop4880"
         offset="1"
         style="stop-color:#ff3055;stop-opacity:0.898" />
    </linearGradient>
    <linearGradient
       id="linearGradient4788">
      <stop
         id="stop4784"
         offset="0"
         style="stop-color:#ff00ff;stop-opacity:1;" />
      <stop
         id="stop4786"
         offset="1"
         style="stop-color:#ff00ff;stop-opacity:0;" />
    </linearGradient>
    <linearGradient
       id="linearGradient4738">
      <stop
         id="stop4734"
         offset="0"
         style="stop-color:#0cc2f9;stop-opacity:1;" />
      <stop
         id="stop4736"
         offset="1"
         style="stop-color:#ab129d;stop-opacity:0.757" />
    </linearGradient>
    <linearGradient
       id="linearGradient4730">
      <stop
         id="stop4726"
         offset="0"
         style="stop-color:#ff00ff;stop-opacity:1;" />
      <stop
         id="stop4728"
         offset="1"
         style="stop-color:#ff00ff;stop-opacity:0;" />
    </linearGradient>
    <linearGradient
       id="linearGradient2131">
      <stop
         id="stop2127"
         offset="0"
         style="stop-color:#f55dae;stop-opacity:1;" />
      <stop
         id="stop2129"
         offset="1"
         style="stop-color:#517cff;stop-opacity:1" />
    </linearGradient>
    <linearGradient
       gradientUnits="userSpaceOnUse"
       y2="1263.8478"
       x2="2664.3784"
       y1="717.96136"
       x1="299.81326"
       id="linearGradient2133"
       xlink:href="#linearGradient2131" />
    <linearGradient
       gradientUnits="userSpaceOnUse"
       y2="-46.696091"
       x2="1044.7502"
       y1="-46.696091"
       x1="-303.63986"
       id="linearGradient851"
       xlink:href="#linearGradient2131" />
    <linearGradient
       gradientUnits="userSpaceOnUse"
       y2="1209.7393"
       x2="275.08536"
       y1="803.76959"
       x1="298.17661"
       id="linearGradient4740"
       xlink:href="#linearGradient4894" />
    <linearGradient
       gradientUnits="userSpaceOnUse"
       y2="762.46326"
       x2="2162.5876"
       y1="256.87534"
       x1="1606.3524"
       id="linearGradient4752"
       xlink:href="#linearGradient4730" />
    <linearGradient
       y2="104"
       x2="1734"
       y1="-75.167389"
       x1="1760.402"
       gradientUnits="userSpaceOnUse"
       id="linearGradient4770"
       xlink:href="#linearGradient4738" />
    <linearGradient
       gradientUnits="userSpaceOnUse"
       y2="566.27417"
       x2="1657.4158"
       y1="1290.3516"
       x1="961.10382"
       id="linearGradient4790"
       xlink:href="#linearGradient4788" />
    <radialGradient
       gradientUnits="userSpaceOnUse"
       gradientTransform="matrix(-0.58344855,0.79993716,-0.64646265,-0.47150915,3332.4245,-283.82086)"
       r="569.03552"
       fy="929.59967"
       fx="1849.6854"
       cy="929.59967"
       cx="1849.6854"
       id="radialGradient4792"
       xlink:href="#linearGradient4730" />
    <linearGradient
       gradientUnits="userSpaceOnUse"
       y2="48.695171"
       x2="508.28848"
       y1="48.695171"
       x1="199.98991"
       id="linearGradient4888"
       xlink:href="#linearGradient4882" />
    <linearGradient
       gradientUnits="userSpaceOnUse"
       y2="48.695171"
       x2="508.28848"
       y1="48.695171"
       x1="199.98991"
       id="linearGradient4888-0"
       xlink:href="#linearGradient4882"
       gradientTransform="translate(379.13411,1026.4116)" />
    <linearGradient
       gradientUnits="userSpaceOnUse"
       y2="48.695171"
       x2="508.28848"
       y1="48.695171"
       x1="199.98991"
       id="linearGradient4888-0-2"
       xlink:href="#linearGradient4882"
       gradientTransform="translate(1670.7304,525.34518)" />
    <radialGradient
       gradientTransform="matrix(0.28099174,0,0,0.28099174,84.665804,571.85364)"
       gradientUnits="userSpaceOnUse"
       r="171.11984"
       fy="691.09125"
       fx="816.00122"
       cy="691.09125"
       cx="816.00122"
       id="radialGradient5812"
       xlink:href="#linearGradient4738" />
    <radialGradient
       gradientTransform="matrix(0.28099174,0,0,0.28099174,1650.7104,33.809085)"
       gradientUnits="userSpaceOnUse"
       r="171.11984"
       fy="691.09125"
       fx="816.00122"
       cy="691.09125"
       cx="816.00122"
       id="radialGradient5812-7"
       xlink:href="#linearGradient4738" />
    <radialGradient
       gradientTransform="matrix(0.28099174,0,0,0.28099174,828.71039,907.80909)"
       gradientUnits="userSpaceOnUse"
       r="171.11984"
       fy="691.09125"
       fx="816.00122"
       cy="691.09125"
       cx="816.00122"
       id="radialGradient5812-1"
       xlink:href="#linearGradient4738" />
    <radialGradient
       gradientTransform="matrix(0.11363637,0,0,0.11363637,705.91041,156.84275)"
       gradientUnits="userSpaceOnUse"
       r="171.11984"
       fy="691.09125"
       fx="816.00122"
       cy="691.09125"
       cx="816.00122"
       id="radialGradient5812-72"
       xlink:href="#linearGradient4738" />
  </defs>
  <metadata
     id="metadata1385">
    <rdf:RDF>
      <cc:Work
         rdf:about="">
        <dc:format>image/svg+xml</dc:format>
        <dc:type
           rdf:resource="http://purl.org/dc/dcmitype/StillImage" />
        <dc:title></dc:title>
      </cc:Work>
    </rdf:RDF>
  </metadata>
  <g
     id="layer1">
    <path
       transform="translate(-7745.9411,-4370.4954)"
       id="path2119"
       d="m -158.39192,771.70144 c 28.99069,-68.70363 42.09013,-142.93385 64.975748,-213.90495 11.442809,-35.48555 25.425084,-70.33822 44.640247,-102.29037 19.215162,-31.95215 43.8379576,-61.0171 74.231769,-82.6129 42.5854,-30.25832 95.340056,-44.74675 147.580406,-44.91548 52.24034,-0.16874 103.97039,13.47636 151.41671,35.33794 94.89264,43.72317 171.38664,118.37726 246.88932,190.59688 71.65646,68.54064 144.5721,136.43175 226.42888,192.39545 81.85679,55.96369 173.50918,99.93816 271.37434,115.9031 128.2787,20.92635 260.2635,-7.2844 381.4714,-54.20943 121.208,-46.92503 234.3203,-112.15841 351.0912,-169.23631 42.429,-20.73938 85.6849,-40.52834 131.4782,-52.07435 45.7933,-11.546 94.6116,-14.53503 140.0508,-1.66577 35.52,10.05996 68.1607,29.69387 94.3585,55.70442 26.1978,26.01056 45.9742,58.29681 58.1335,93.15404 24.3184,69.71448 17.4242,148.39688 -12.2554,216.0032 -29.6796,67.60629 -80.9384,124.46539 -141.1298,167.22639 -60.1913,42.761 -129.1342,72.0148 -199.9251,92.9943 -242.062,71.7371 -501.2585,48.1647 -751.3211,13.3946 -250.0625,-34.7701 -502.72746,-80.2044 -753.40217,-50.1641 -83.5135,10.0081 -166.40628,28.3789 -250.51726,28.2858 -42.05549,-0.047 -84.33783,-4.7915 -124.4985908,-17.2727 -40.1607602,-12.4812 -78.2065592,-32.9049 -108.6451892,-61.9248 -42.94558,-40.944 -69.15416,-97.9742 -76.68442,-156.83015 -7.53025,-58.85597 2.97627,-119.31396 25.77273,-174.09582 2.75862,-6.6292 5.69379,-13.18356 8.48528,-19.79899 z"
       style="fill:url(#linearGradient2133);fill-opacity:1;stroke:none;stroke-width:1px;stroke-linecap:butt;stroke-linejoin:miter;stroke-opacity:1" />
    <rect
       y="-9.575042e-07"
       x="0"
       height="1104"
       width="1936"
       id="rect4616"
       style="opacity:1;fill:#3a0292;fill-opacity:1;stroke:none" />
    <path
       id="path5253-9-0"
       d="m 847.43336,-38.55865 a 99.642551,99.642551 0 0 0 -1.2985,-0.456457 l -76.9328,183.725667 a 99.642551,99.642551 0 0 0 1.2589,0.55082 99.642551,99.642551 0 0 0 6.4765,2.33878 l 76.7454,-183.277981 a 99.642551,99.642551 0 0 0 -6.2495,-2.880835 z m -11.4094,-3.790977 a 99.642551,99.642551 0 0 0 -9.5144,-2.193458 l -75.0121,179.138445 a 99.642551,99.642551 0 0 0 8.2187,5.28801 z m 26.9355,11.999454 -75.7315,180.856613 a 99.642551,99.642551 0 0 0 8.3453,1.43321 l 74.2727,-177.372931 a 99.642551,99.642551 0 0 0 -6.8865,-4.916892 z m -47.4283,-15.455866 a 99.642551,99.642551 0 0 0 -9.2146,-0.245235 l -70.0339,167.250144 a 99.642551,99.642551 0 0 0 6.6084,6.46903 z m 62.7678,27.666571 -71.608,171.009048 a 99.642551,99.642551 0 0 0 9.8,-0.26403 l 68.4958,-163.576847 a 99.642551,99.642551 0 0 0 -6.6878,-7.168171 z m -83.9544,-26.80234 a 99.642551,99.642551 0 0 0 -11.809,2.397939 l -60.4571,144.379579 a 99.642551,99.642551 0 0 0 6.5612,10.13442 z m 97.9682,43.95549047 -63.5707,151.81530753 a 99.642551,99.642551 0 0 0 10.4703,-2.75362 L 897.65906,8.4969005 a 99.642551,99.642551 0 0 0 -5.3463,-9.48321803 z M 769.05606,-37.833505 a 99.642551,99.642551 0 0 0 -12.3944,6.460671 L 711.91976,75.47657 a 99.642551,99.642551 0 0 0 4.1309,13.27369 z m 134.3678,60.044765 -50.3227,120.17703 a 99.642551,99.642551 0 0 0 10.3285,-5.96733 l 43.0282,-102.75709 a 99.642551,99.642551 0 0 0 -3.034,-11.45261 z m -161.4193,-42.509922 a 99.642551,99.642551 0 0 0 -24.9674,35.163792 99.642551,99.642551 0 0 0 -7.5407,42.46975 z m 166.3232,76.978192 -27.2173,64.99845 a 99.642551,99.642551 0 0 0 19.7468,-29.84039 99.642551,99.642551 0 0 0 7.4705,-35.15806 z"
       style="opacity:0.89800002;fill:#f2f2f2;fill-opacity:1;stroke:none;stroke-width:1.14817619;stroke-miterlimit:4;stroke-dasharray:none" />
    <circle
       r="154.14928"
       cy="1075.1068"
       cx="733.27332"
       id="path4868-1"
       style="opacity:1;fill:url(#linearGradient4888-0);fill-opacity:1;stroke:none;stroke-width:18.89763832;stroke-miterlimit:4;stroke-dasharray:none" />
    <circle
       r="45.508602"
       cy="950.24768"
       cx="665.56512"
       id="path4824-3-7"
       style="opacity:1;fill:none;fill-opacity:1;stroke:#ffffff;stroke-width:7.31912422;stroke-miterlimit:4;stroke-dasharray:none" />
    <circle
       r="117.50109"
       cy="516.03442"
       cx="53.461761"
       id="path4824"
       style="opacity:1;fill:none;fill-opacity:1;stroke:#ffffff;stroke-width:18.89763832;stroke-miterlimit:4;stroke-dasharray:none" />
    <path
       id="path4612"
       d="M 380,71.999999 C 444.2467,103.75043 514.8773,119.85431 584.63065,136.29197 654.38401,152.72963 724.86841,170.08643 788,204 880.65815,253.77491 951.45463,335.9368 1013.3403,420.98524 1075.226,506.03368 1130.9194,596.35408 1204,672 c 73.0579,75.62246 164.0495,135.74164 265.6389,162.86749 C 1571.2283,861.99334 1683.6418,854.26115 1776,804 1847.2272,765.2383 1904.2942,702.68424 1941.5516,630.65877 1978.809,558.6333 1996.8012,477.47462 1999.3322,396.42294 2004.3943,234.31957 1949.3092,76.451436 1884,-72.000002 1780.9358,-306.27057 1647.6713,-531.87434 1458.9016,-704.70634 1270.1318,-877.53833 1020.3329,-993.745 764.56693,-984.32779 c -127.883,4.7086 -255.17996,40.98839 -363.46224,109.18797 -108.28227,68.19958 -196.85328,168.74248 -245.82248,286.97213 -48.96919,118.22966 -57.166087,253.84529 -17.62023,375.55133 C 177.20783,-90.910329 265.27533,15.30358 380,71.999999 Z"
       style="fill:url(#linearGradient4790);stroke:none;stroke-width:1px;stroke-linecap:butt;stroke-linejoin:miter;stroke-opacity:1;fill-opacity:1" />
    <rect
       transform="rotate(-47.214935)"
       ry="3.5"
       y="275.21417"
       x="-15.651331"
       height="7"
       width="145.76471"
       id="rect5494-9-00"
       style="opacity:1;fill:#f2f2f2;fill-opacity:1;stroke:none;stroke-width:3.89069009;stroke-miterlimit:4;stroke-dasharray:none" />
    <circle
       r="154.14928"
       cy="574.04047"
       cx="2024.8696"
       id="path4868-1-4"
       style="opacity:1;fill:url(#linearGradient4888-0-2);fill-opacity:1;stroke:none;stroke-width:18.89763832;stroke-miterlimit:4;stroke-dasharray:none" />
    <rect
       transform="matrix(0.66051969,-0.75080873,0.71646898,0.69761895,0,0)"
       ry="10.170505"
       y="1843.1686"
       x="404.81946"
       height="20.341009"
       width="425.23318"
       id="rect5494-9-3-4-2"
       style="opacity:1;fill:#f2f2f2;fill-opacity:1;stroke:none;stroke-width:11.32794762;stroke-miterlimit:4;stroke-dasharray:none" />
    <path
       transform="translate(80,-44)"
       id="path4582"
       d="m 1304,1156 c -28.3962,-22.4517 -53.7701,-50.932 -63.7272,-85.7355 -4.9785,-17.4017 -5.8847,-36.118 -1.3733,-53.6465 4.5115,-17.52864 14.6079,-33.7751 29.1005,-44.618 11.3789,-8.51328 25.1683,-13.53964 39.2565,-15.40429 14.0882,-1.86466 28.4777,-0.65084 42.335,2.50015 27.7147,6.30197 53.0331,20.10151 78.4085,32.90414 22.7596,11.4829 45.9767,22.3196 70.4206,29.5552 24.4438,7.2355 50.2701,10.7963 75.5484,7.5001 25.2782,-3.2961 50.0096,-13.7965 68.0408,-31.81679 9.0156,-9.01015 16.2794,-19.81865 20.8737,-31.708 4.5942,-11.88936 6.4867,-24.85823 5.1165,-37.53051 -1.8054,-16.69702 -9.1651,-32.4074 -18.7604,-46.19069 -9.5954,-13.78329 -21.4078,-25.85233 -33.1652,-37.84457 C 1604.317,831.9725 1592.4953,819.91421 1582.877,806.14691 1573.2587,792.37962 1565.861,776.69092 1564,760 c -2.62,-23.49825 6.4357,-47.8827 23.3076,-64.44693 C 1604.1794,678.98884 1628.4099,670.40723 1652,672 c 15.7902,1.06613 31.0296,6.41556 45.2381,13.38587 14.2085,6.97031 27.5441,15.56766 41.1651,23.62588 13.621,8.05822 27.6664,15.63971 42.777,20.34457 15.1106,4.70486 31.4512,6.42167 46.8198,2.64368 19.5215,-4.79889 36.2711,-18.32058 47.2371,-35.16891 10.966,-16.84833 16.49,-36.81252 18.3429,-56.82966 3.7057,-40.03429 -6.6552,-79.90252 -9.58,-120.00143 -3.2947,-45.1708 3.2257,-91.75469 24,-132 26.6879,-51.70157 76.5008,-90.3157 132.5624,-105.88453 56.0617,-15.56884 117.584,-8.55871 169.9631,16.77348 52.3792,25.3322 95.5285,68.38177 123.4754,119.4138 27.9469,51.03203 40.943,109.73528 39.9986,167.91092 -1.8889,116.35129 -58.7064,226.88108 -137.5663,312.45151 C 2157.5732,984.23561 2057.7852,1047.5999 1956,1104 c -101.3078,56.1356 -207.837,107.0471 -322.2789,124.8659 -57.221,8.9094 -116.042,9.3236 -172.8177,-2.0841 C 1404.1277,1215.3742 1349.4267,1191.917 1304,1156 Z"
       style="fill:url(#radialGradient4792);stroke:none;stroke-width:1px;stroke-linecap:butt;stroke-linejoin:miter;stroke-opacity:1;fill-opacity:1" />
    <path
       id="path4582-8"
       d="m 1304,1156 c -28.3962,-22.4517 -53.7701,-50.932 -63.7272,-85.7355 -4.9785,-17.4017 -5.8847,-36.118 -1.3733,-53.6465 4.5115,-17.52864 14.6079,-33.7751 29.1005,-44.618 11.3789,-8.51328 25.1683,-13.53964 39.2565,-15.40429 14.0882,-1.86466 28.4777,-0.65084 42.335,2.50015 27.7147,6.30197 53.0331,20.10151 78.4085,32.90414 22.7596,11.4829 45.9767,22.3196 70.4206,29.5552 24.4438,7.2355 50.2701,10.7963 75.5484,7.5001 25.2782,-3.2961 50.0096,-13.7965 68.0408,-31.81679 9.0156,-9.01015 16.2794,-19.81865 20.8737,-31.708 4.5942,-11.88936 6.4867,-24.85823 5.1165,-37.53051 -1.8054,-16.69702 -9.1651,-32.4074 -18.7604,-46.19069 -9.5954,-13.78329 -21.4078,-25.85233 -33.1652,-37.84457 C 1604.317,831.9725 1592.4953,819.91421 1582.877,806.14691 1573.2587,792.37962 1565.861,776.69092 1564,760 c -2.62,-23.49825 6.4357,-47.8827 23.3076,-64.44693 C 1604.1794,678.98884 1628.4099,670.40723 1652,672 c 15.7902,1.06613 31.0296,6.41556 45.2381,13.38587 14.2085,6.97031 27.5441,15.56766 41.1651,23.62588 13.621,8.05822 27.6664,15.63971 42.777,20.34457 15.1106,4.70486 31.4512,6.42167 46.8198,2.64368 19.5215,-4.79889 36.2711,-18.32058 47.2371,-35.16891 10.966,-16.84833 16.49,-36.81252 18.3429,-56.82966 3.7057,-40.03429 -6.6552,-79.90252 -9.58,-120.00143 -3.2947,-45.1708 3.2257,-91.75469 24,-132 26.6879,-51.70157 76.5008,-90.3157 132.5624,-105.88453 56.0617,-15.56884 117.584,-8.55871 169.9631,16.77348 52.3792,25.3322 95.5285,68.38177 123.4754,119.4138 27.9469,51.03203 40.943,109.73528 39.9986,167.91092 -1.8889,116.35129 -58.7064,226.88108 -137.5663,312.45151 C 2157.5732,984.23561 2057.7852,1047.5999 1956,1104 c -101.3078,56.1356 -207.837,107.0471 -322.2789,124.8659 -57.221,8.9094 -116.042,9.3236 -172.8177,-2.0841 C 1404.1277,1215.3742 1349.4267,1191.917 1304,1156 Z"
       style="fill:url(#linearGradient4752);stroke:none;stroke-width:1px;stroke-linecap:butt;stroke-linejoin:miter;stroke-opacity:1;fill-opacity:1"
       transform="rotate(-169.4338,1155.8947,514.13733)" />
    <rect
       transform="rotate(-47.214935)"
       ry="3.5"
       y="275.21417"
       x="144.61337"
       height="7"
       width="39.264709"
       id="rect5494-9-7-7"
       style="opacity:1;fill:#f2f2f2;fill-opacity:1;stroke:none;stroke-width:2.0193038;stroke-miterlimit:4;stroke-dasharray:none" />
    <path
       transform="translate(1.6232069e-5,-6.4618557e-6)"
       id="path4590"
       d="m 1128,-144 c 2.3463,8.10135 5.1296,16.06917 8,24 24.7761,68.456278 56.7266,135.369729 104.2072,190.557681 C 1287.6878,125.74563 1352.089,168.64557 1424,180 c 54.177,8.55431 109.651,-0.92852 162.5884,-15.27991 52.9373,-14.35138 104.5702,-33.58222 158.1921,-45.11563 53.6219,-11.5334 110.4641,-15.05619 162.6095,1.94904 26.0727,8.50261 50.6317,22.1476 70.5735,40.97331 19.9417,18.8257 35.139,42.93067 42.0365,69.47319 2.4538,9.44255 3.86,19.12336 5.9639,28.64998 2.1039,9.52662 4.9594,19.01878 10.0361,27.35002 8.1272,13.33719 21.8153,23.00199 36.9312,26.9317 15.1159,3.9297 31.5007,2.2472 45.8265,-3.97397 14.3258,-6.22117 26.5857,-16.84963 35.4331,-29.72037 8.8473,-12.87075 14.3387,-27.92116 16.6492,-43.36763 4.621,-30.89295 -3.3794,-62.58383 -16.7848,-90.79768 C 2140.6497,118.85819 2122.0227,93.512972 2104,67.999999 2034.1713,-30.849857 1971.7017,-135.0564 1895.8188,-229.33854 c -75.8829,-94.28215 -167.2325,-179.6112 -278.5093,-227.20135 -55.6383,-23.79507 -115.7969,-37.75155 -176.3099,-37.73856 -60.5131,0.013 -121.3518,14.26043 -174.1306,43.86156 -52.7789,29.60114 -97.175,74.82966 -123.0683,129.5231 C 1117.9075,-266.20034 1111.1659,-202.12441 1128,-144 Z"
       style="fill:url(#linearGradient4770);fill-opacity:1;stroke:none;stroke-width:1px;stroke-linecap:butt;stroke-linejoin:miter;stroke-opacity:1" />
    <path
       id="path4586-0"
       d="M -72,960 C -24.743105,905.54495 31.655304,858.52923 95.784332,825.57419 159.91336,792.61915 231.92604,774.02245 304,776 c 84.42911,2.31654 166.51297,32.67839 238.0959,77.50611 C 613.67883,898.33383 675.48588,957.23222 732,1020 c 67.46855,74.9344 128.96079,157.4515 164,252 36.01287,97.1758 42.42082,204.9847 18.95307,305.9269 -23.46775,100.9422 -76.62297,194.6815 -150.63974,267.2182 -74.01677,72.5368 -168.58837,123.7124 -269.62207,146.7831 C 393.65757,2014.9989 286.469,2009.9926 187.77589,1978.3741 89.082779,1946.7556 -0.89526019,1888.69 -70.964402,1812.3331 -141.03354,1735.9762 -191.10174,1641.554 -215.7837,1540.9018 -265.14761,1339.5975 -207.8491,1116.5416 -72,960 Z"
       style="fill:#999999;stroke:none;stroke-width:1px;stroke-linecap:butt;stroke-linejoin:miter;stroke-opacity:1"
       transform="translate(-11030.382,-230.69415)" />
    <path
       id="path4612-7"
       d="M 380,71.999999 C 444.2467,103.75043 514.8773,119.85431 584.63065,136.29197 654.38401,152.72963 724.86841,170.08643 788,204 880.65815,253.77491 951.45463,335.9368 1013.3403,420.98524 1075.226,506.03368 1130.9194,596.35408 1204,672 c 73.0579,75.62246 164.0495,135.74164 265.6389,162.86749 C 1571.2283,861.99334 1683.6418,854.26115 1776,804 1847.2272,765.2383 1904.2942,702.68424 1941.5516,630.65877 1978.809,558.6333 1996.8012,477.47462 1999.3322,396.42294 2004.3943,234.31957 1949.3092,76.451436 1884,-72.000002 1780.9358,-306.27057 1647.6713,-531.87434 1458.9016,-704.70634 1270.1318,-877.53833 1020.3329,-993.745 764.56693,-984.32779 c -127.883,4.7086 -255.17996,40.98839 -363.46224,109.18797 -108.28227,68.19958 -196.85328,168.74248 -245.82248,286.97213 -48.96919,118.22966 -57.166087,253.84529 -17.62023,375.55133 C 177.20783,-90.910329 265.27533,15.30358 380,71.999999 Z"
       style="fill:#b3b3b3;stroke:none;stroke-width:1px;stroke-linecap:butt;stroke-linejoin:miter;stroke-opacity:1"
       transform="translate(-11030.382,-230.69415)" />
    <path
       transform="translate(-10950.382,-274.69415)"
       id="path4582-2"
       d="m 1304,1156 c -28.3962,-22.4517 -53.7701,-50.932 -63.7272,-85.7355 -4.9785,-17.4017 -5.8847,-36.118 -1.3733,-53.6465 4.5115,-17.52864 14.6079,-33.7751 29.1005,-44.618 11.3789,-8.51328 25.1683,-13.53964 39.2565,-15.40429 14.0882,-1.86466 28.4777,-0.65084 42.335,2.50015 27.7147,6.30197 53.0331,20.10151 78.4085,32.90414 22.7596,11.4829 45.9767,22.3196 70.4206,29.5552 24.4438,7.2355 50.2701,10.7963 75.5484,7.5001 25.2782,-3.2961 50.0096,-13.7965 68.0408,-31.81679 9.0156,-9.01015 16.2794,-19.81865 20.8737,-31.708 4.5942,-11.88936 6.4867,-24.85823 5.1165,-37.53051 -1.8054,-16.69702 -9.1651,-32.4074 -18.7604,-46.19069 -9.5954,-13.78329 -21.4078,-25.85233 -33.1652,-37.84457 C 1604.317,831.9725 1592.4953,819.91421 1582.877,806.14691 1573.2587,792.37962 1565.861,776.69092 1564,760 c -2.62,-23.49825 6.4357,-47.8827 23.3076,-64.44693 C 1604.1794,678.98884 1628.4099,670.40723 1652,672 c 15.7902,1.06613 31.0296,6.41556 45.2381,13.38587 14.2085,6.97031 27.5441,15.56766 41.1651,23.62588 13.621,8.05822 27.6664,15.63971 42.777,20.34457 15.1106,4.70486 31.4512,6.42167 46.8198,2.64368 19.5215,-4.79889 36.2711,-18.32058 47.2371,-35.16891 10.966,-16.84833 16.49,-36.81252 18.3429,-56.82966 3.7057,-40.03429 -6.6552,-79.90252 -9.58,-120.00143 -3.2947,-45.1708 3.2257,-91.75469 24,-132 26.6879,-51.70157 76.5008,-90.3157 132.5624,-105.88453 56.0617,-15.56884 117.584,-8.55871 169.9631,16.77348 52.3792,25.3322 95.5285,68.38177 123.4754,119.4138 27.9469,51.03203 40.943,109.73528 39.9986,167.91092 -1.8889,116.35129 -58.7064,226.88108 -137.5663,312.45151 C 2157.5732,984.23561 2057.7852,1047.5999 1956,1104 c -101.3078,56.1356 -207.837,107.0471 -322.2789,124.8659 -57.221,8.9094 -116.042,9.3236 -172.8177,-2.0841 C 1404.1277,1215.3742 1349.4267,1191.917 1304,1156 Z"
       style="fill:#808080;stroke:none;stroke-width:1px;stroke-linecap:butt;stroke-linejoin:miter;stroke-opacity:1" />
    <path
       id="path4582-8-8"
       d="m 1304,1156 c -28.3962,-22.4517 -53.7701,-50.932 -63.7272,-85.7355 -4.9785,-17.4017 -5.8847,-36.118 -1.3733,-53.6465 4.5115,-17.52864 14.6079,-33.7751 29.1005,-44.618 11.3789,-8.51328 25.1683,-13.53964 39.2565,-15.40429 14.0882,-1.86466 28.4777,-0.65084 42.335,2.50015 27.7147,6.30197 53.0331,20.10151 78.4085,32.90414 22.7596,11.4829 45.9767,22.3196 70.4206,29.5552 24.4438,7.2355 50.2701,10.7963 75.5484,7.5001 25.2782,-3.2961 50.0096,-13.7965 68.0408,-31.81679 9.0156,-9.01015 16.2794,-19.81865 20.8737,-31.708 4.5942,-11.88936 6.4867,-24.85823 5.1165,-37.53051 -1.8054,-16.69702 -9.1651,-32.4074 -18.7604,-46.19069 -9.5954,-13.78329 -21.4078,-25.85233 -33.1652,-37.84457 C 1604.317,831.9725 1592.4953,819.91421 1582.877,806.14691 1573.2587,792.37962 1565.861,776.69092 1564,760 c -2.62,-23.49825 6.4357,-47.8827 23.3076,-64.44693 C 1604.1794,678.98884 1628.4099,670.40723 1652,672 c 15.7902,1.06613 31.0296,6.41556 45.2381,13.38587 14.2085,6.97031 27.5441,15.56766 41.1651,23.62588 13.621,8.05822 27.6664,15.63971 42.777,20.34457 15.1106,4.70486 31.4512,6.42167 46.8198,2.64368 19.5215,-4.79889 36.2711,-18.32058 47.2371,-35.16891 10.966,-16.84833 16.49,-36.81252 18.3429,-56.82966 3.7057,-40.03429 -6.6552,-79.90252 -9.58,-120.00143 -3.2947,-45.1708 3.2257,-91.75469 24,-132 26.6879,-51.70157 76.5008,-90.3157 132.5624,-105.88453 56.0617,-15.56884 117.584,-8.55871 169.9631,16.77348 52.3792,25.3322 95.5285,68.38177 123.4754,119.4138 27.9469,51.03203 40.943,109.73528 39.9986,167.91092 -1.8889,116.35129 -58.7064,226.88108 -137.5663,312.45151 C 2157.5732,984.23561 2057.7852,1047.5999 1956,1104 c -101.3078,56.1356 -207.837,107.0471 -322.2789,124.8659 -57.221,8.9094 -116.042,9.3236 -172.8177,-2.0841 C 1404.1277,1215.3742 1349.4267,1191.917 1304,1156 Z"
       style="fill:#ff00ff;stroke:none;stroke-width:1px;stroke-linecap:butt;stroke-linejoin:miter;stroke-opacity:1"
       transform="rotate(-169.4338,-4369.9624,908.77834)" />
    <path
       id="path4590-5"
       d="m 1128,-144 c 2.3463,8.10135 5.1296,16.06917 8,24 24.7761,68.456278 56.7266,135.369729 104.2072,190.557681 C 1287.6878,125.74563 1352.089,168.64557 1424,180 c 54.177,8.55431 109.651,-0.92852 162.5884,-15.27991 52.9373,-14.35138 104.5702,-33.58222 158.1921,-45.11563 53.6219,-11.5334 110.4641,-15.05619 162.6095,1.94904 26.0727,8.50261 50.6317,22.1476 70.5735,40.97331 19.9417,18.8257 35.139,42.93067 42.0365,69.47319 2.4538,9.44255 3.86,19.12336 5.9639,28.64998 2.1039,9.52662 4.9594,19.01878 10.0361,27.35002 8.1272,13.33719 21.8153,23.00199 36.9312,26.9317 15.1159,3.9297 31.5007,2.2472 45.8265,-3.97397 14.3258,-6.22117 26.5857,-16.84963 35.4331,-29.72037 8.8473,-12.87075 14.3387,-27.92116 16.6492,-43.36763 4.621,-30.89295 -3.3794,-62.58383 -16.7848,-90.79768 C 2140.6497,118.85819 2122.0227,93.512972 2104,67.999999 2034.1713,-30.849857 1971.7017,-135.0564 1895.8188,-229.33854 c -75.8829,-94.28215 -167.2325,-179.6112 -278.5093,-227.20135 -55.6383,-23.79507 -115.7969,-37.75155 -176.3099,-37.73856 -60.5131,0.013 -121.3518,14.26043 -174.1306,43.86156 -52.7789,29.60114 -97.175,74.82966 -123.0683,129.5231 C 1117.9075,-266.20034 1111.1659,-202.12441 1128,-144 Z"
       style="fill:#333333;stroke:none;stroke-width:1px;stroke-linecap:butt;stroke-linejoin:miter;stroke-opacity:1"
       transform="translate(-11030.382,-230.69415)" />
    <rect
       y="-230.69412"
       x="-11030.382"
       height="1104"
       width="1936"
       id="rect4616-3"
       style="opacity:0.49300005;fill:#ececec;fill-opacity:1;stroke:none" />
    <path
       transform="translate(16.970563,-5.6568543)"
       id="path4586"
       d="M -72,960 C -24.743105,905.54495 31.655304,858.52923 95.784332,825.57419 159.91336,792.61915 231.92604,774.02245 304,776 c 84.42911,2.31654 166.51297,32.67839 238.0959,77.50611 C 613.67883,898.33383 675.48588,957.23222 732,1020 c 67.46855,74.9344 128.96079,157.4515 164,252 36.01287,97.1758 42.42082,204.9847 18.95307,305.9269 -23.46775,100.9422 -76.62297,194.6815 -150.63974,267.2182 -74.01677,72.5368 -168.58837,123.7124 -269.62207,146.7831 C 393.65757,2014.9989 286.469,2009.9926 187.77589,1978.3741 89.082779,1946.7556 -0.89526019,1888.69 -70.964402,1812.3331 -141.03354,1735.9762 -191.10174,1641.554 -215.7837,1540.9018 -265.14761,1339.5975 -207.8491,1116.5416 -72,960 Z"
       style="fill:url(#linearGradient4740);fill-opacity:1;stroke:none;stroke-width:1px;stroke-linecap:butt;stroke-linejoin:miter;stroke-opacity:1" />
    <circle
       r="117.50109"
       cy="1162.0243"
       cx="1269.9639"
       id="path4824-3"
       style="opacity:1;fill:none;fill-opacity:1;stroke:#ffffff;stroke-width:18.89763832;stroke-miterlimit:4;stroke-dasharray:none" />
    <circle
       r="154.14928"
       cy="48.695171"
       cx="354.13919"
       id="path4868"
       style="opacity:1;fill:url(#linearGradient4888);fill-opacity:1;stroke:none;stroke-width:18.89763832;stroke-miterlimit:4;stroke-dasharray:none" />
    <rect
       transform="rotate(-47.214935)"
       ry="3.5"
       y="293.69858"
       x="107.39896"
       height="7"
       width="145.76471"
       id="rect5494-9-4-2"
       style="opacity:1;fill:#f2f2f2;fill-opacity:1;stroke:none;stroke-width:3.89069009;stroke-miterlimit:4;stroke-dasharray:none" />
    <rect
       transform="rotate(-47.214935)"
       ry="3.5"
       y="275.19858"
       x="-66.336327"
       height="7"
       width="39.264709"
       id="rect5494-9-7-2-1"
       style="opacity:1;fill:#f2f2f2;fill-opacity:1;stroke:none;stroke-width:2.0193038;stroke-miterlimit:4;stroke-dasharray:none" />
    <circle
       r="117.50109"
       cy="56.535797"
       cx="1852.2421"
       id="path4824-3-5"
       style="opacity:1;fill:none;fill-opacity:1;stroke:#ffffff;stroke-width:18.89763832;stroke-miterlimit:4;stroke-dasharray:none" />
    <rect
       y="-2206.6323"
       x="-6533.6665"
       height="4451.9443"
       width="4706.5029"
       id="rect5257"
       style="opacity:1;fill:#ff00ff;fill-opacity:1;stroke:none;stroke-width:18.89763832;stroke-miterlimit:4;stroke-dasharray:none" />
    <path
       id="path5253"
       d="M -5135.0723 -1740.7148 A 821.64264 821.64264 0 0 0 -5146.4023 -1740.0508 L -5146.4023 -97.609375 A 821.64264 821.64264 0 0 0 -5135.0723 -97.429688 A 821.64264 821.64264 0 0 0 -5078.3633 -100.26758 L -5078.3633 -1738.707 A 821.64264 821.64264 0 0 0 -5135.0723 -1740.7148 z M -5233.9258 -1733.2109 A 821.64264 821.64264 0 0 0 -5313.2793 -1719.5918 L -5313.2793 -118.1582 A 821.64264 821.64264 0 0 0 -5233.9258 -104.11328 L -5233.9258 -1733.2109 z M -4990.8379 -1727.7305 L -4990.8379 -110.9375 A 821.64264 821.64264 0 0 0 -4922.7988 -126.61523 L -4922.7988 -1712.2656 A 821.64264 821.64264 0 0 0 -4990.8379 -1727.7305 z M -5400.8027 -1694.2324 A 821.64264 821.64264 0 0 0 -5471.6699 -1666.75 L -5471.6699 -171.59375 A 821.64264 821.64264 0 0 0 -5400.8027 -143.4375 L -5400.8027 -1694.2324 z M -4835.2754 -1683.7109 L -4835.2754 -154.95117 A 821.64264 821.64264 0 0 0 -4761.5781 -188.17188 L -4761.5781 -1650.4902 A 821.64264 821.64264 0 0 0 -4835.2754 -1683.7109 z M -5559.1953 -1620.1816 A 821.64264 821.64264 0 0 0 -5641.377 -1564.332 L -5641.377 -273.63086 A 821.64264 821.64264 0 0 0 -5559.1953 -217.44531 L -5559.1953 -1620.1816 z M -4674.0547 -1597.877 L -4674.0547 -240.70312 A 821.64264 821.64264 0 0 0 -4603.1875 -294.99414 L -4603.1875 -1542.7754 A 821.64264 821.64264 0 0 0 -4674.0547 -1597.877 z M -5728.9004 -1485.5742 A 821.64264 821.64264 0 0 0 -5802.5957 -1396.959 L -5802.5957 -441.76367 A 821.64264 821.64264 0 0 0 -5728.9004 -353.96094 L -5728.9004 -1485.5742 z M -4515.6621 -1456.8242 L -4515.6621 -382.48438 A 821.64264 821.64264 0 0 0 -4456.1094 -460.76758 L -4456.1094 -1379.3789 A 821.64264 821.64264 0 0 0 -4515.6621 -1456.8242 z M -5878.8066 -1266.0469 A 821.64264 821.64264 0 0 0 -5956.7148 -919.07227 A 821.64264 821.64264 0 0 0 -5878.8066 -572.03125 L -5878.8066 -1266.0469 z M -4368.584 -1210.2773 L -4368.584 -629.21484 A 821.64264 821.64264 0 0 0 -4313.4297 -919.07227 A 821.64264 821.64264 0 0 0 -4368.584 -1210.2773 z "
       style="opacity:0.89800002;fill:#f2f2f2;fill-opacity:1;stroke:none;stroke-width:9.46774769;stroke-miterlimit:4;stroke-dasharray:none" />
    <rect
       y="-2397.4724"
       x="-2261.2493"
       height="4126.5181"
       width="87.524307"
       id="rect5255-8"
       style="opacity:1;fill:#ffffff;fill-opacity:1;stroke:none;stroke-width:16.22614479;stroke-miterlimit:4;stroke-dasharray:none" />
    <path
       id="path5253-9"
       d="m 30.489476,779.12656 a 99.642551,99.642551 0 0 0 -1.1068,0.81816 L 138.21384,946.76665 a 99.642551,99.642551 0 0 0 1.16269,-0.73249 99.642551,99.642551 0 0 0 5.57186,-4.04589 L 36.382416,775.57283 a 99.642551,99.642551 0 0 0 -5.89295,3.55372 z m -9.54327,7.31238 a 99.642551,99.642551 0 0 0 -7.15747,6.64139 L 119.90264,955.73711 a 99.642551,99.642551 0 0 0 8.99054,-3.83158 z M 45.999656,770.88813 153.1313,935.10496 a 99.642551,99.642551 0 0 0 5.87186,-6.10077 L 53.935076,767.9505 a 99.642551,99.642551 0 0 0 -7.93542,2.93763 z m -39.4202703,30.5674 a 99.642551,99.642551 0 0 0 -5.3769004,7.48716 L 100.27426,960.80494 a 99.642551,99.642551 0 0 0 9.06362,-1.83598 z M 64.716876,765.05132 166.01528,920.32665 a 99.642551,99.642551 0 0 0 5.28413,-8.25752 L 74.403536,763.54222 a 99.642551,99.642551 0 0 0 -9.68666,1.5091 z m -69.3186007,54.42089 a 99.642551,99.642551 0 0 0 -4.64646,11.11813 L 76.276016,961.68617 a 99.642551,99.642551 0 0 0 12.07012,0.26124 z M 86.779486,763.08665 176.7083,900.9341 a 99.642551,99.642551 0 0 0 3.60052,-10.21009 L 97.628556,763.98751 a 99.642551,99.642551 0 0 0 -10.84907,-0.90086 z m -99.698741,81.30254 a 99.642551,99.642551 0 0 0 -1.61339,13.88378 l 63.292981,97.01869 a 99.642551,99.642551 0 0 0 13.30316,4.0349 z m 125.133025,-77.47126 71.1877,109.12013 a 99.642551,99.642551 0 0 0 0.86154,-11.89725 l -60.86885,-93.30287 a 99.642551,99.642551 0 0 0 -11.18039,-3.92001 z M -13.598875,876.61951 a 99.642551,99.642551 0 0 0 15.0780703,40.40437 99.642551,99.642551 0 0 0 30.9086707,30.08644 z m 157.087925,-94.40561 38.50226,59.01822 a 99.642551,99.642551 0 0 0 -13.60449,-33.0953 99.642551,99.642551 0 0 0 -24.89777,-25.92292 z"
       style="opacity:0.89800002;fill:#f2f2f2;fill-opacity:1;stroke:none;stroke-width:1.14817619;stroke-miterlimit:4;stroke-dasharray:none" />
    <rect
       ry="17"
       y="508.6283"
       x="-4879.4834"
       height="34"
       width="708"
       id="rect5494"
       style="opacity:1;fill:#f2f2f2;fill-opacity:1;stroke:none;stroke-width:18.89763832;stroke-miterlimit:4;stroke-dasharray:none" />
    <rect
       ry="3.5"
       y="1542.4414"
       x="-3877.3999"
       height="7"
       width="145.76471"
       id="rect5494-9-0"
       style="opacity:1;fill:#f2f2f2;fill-opacity:1;stroke:none;stroke-width:3.89069009;stroke-miterlimit:4;stroke-dasharray:none" />
    <rect
       ry="3.5"
       y="1542.4414"
       x="-3717.1353"
       height="7"
       width="39.264709"
       id="rect5494-9-7-26"
       style="opacity:1;fill:#f2f2f2;fill-opacity:1;stroke:none;stroke-width:2.0193038;stroke-miterlimit:4;stroke-dasharray:none" />
    <rect
       ry="3.5"
       y="1560.9258"
       x="-3754.3496"
       height="7"
       width="145.76471"
       id="rect5494-9-4-7"
       style="opacity:1;fill:#f2f2f2;fill-opacity:1;stroke:none;stroke-width:3.89069009;stroke-miterlimit:4;stroke-dasharray:none" />
    <rect
       ry="3.5"
       y="1542.4258"
       x="-3928.085"
       height="7"
       width="39.264709"
       id="rect5494-9-7-2-9"
       style="opacity:1;fill:#f2f2f2;fill-opacity:1;stroke:none;stroke-width:2.0193038;stroke-miterlimit:4;stroke-dasharray:none" />
    <rect
       ry="3.5"
       y="1560.4258"
       x="-3971.5996"
       height="7"
       width="145.76471"
       id="rect5494-9-3-7"
       style="opacity:1;fill:#f2f2f2;fill-opacity:1;stroke:none;stroke-width:3.89069009;stroke-miterlimit:4;stroke-dasharray:none" />
    <rect
       ry="3.5"
       y="1560.4258"
       x="-3811.335"
       height="7"
       width="39.264709"
       id="rect5494-9-7-4-1"
       style="opacity:1;fill:#f2f2f2;fill-opacity:1;stroke:none;stroke-width:2.0193038;stroke-miterlimit:4;stroke-dasharray:none" />
    <rect
       transform="rotate(-47.214935)"
       ry="3.5"
       y="293.19858"
       x="-109.85104"
       height="7"
       width="145.76471"
       id="rect5494-9-3-4"
       style="opacity:1;fill:#f2f2f2;fill-opacity:1;stroke:none;stroke-width:3.89069009;stroke-miterlimit:4;stroke-dasharray:none" />
    <rect
       transform="rotate(-47.214935)"
       ry="3.5"
       y="293.19858"
       x="50.413673"
       height="7"
       width="39.264709"
       id="rect5494-9-7-4-3"
       style="opacity:1;fill:#f2f2f2;fill-opacity:1;stroke:none;stroke-width:2.0193038;stroke-miterlimit:4;stroke-dasharray:none" />
    <g
       id="g5783">
      <rect
         style="opacity:1;fill:#f2f2f2;fill-opacity:1;stroke:none;stroke-width:19.58143234;stroke-miterlimit:4;stroke-dasharray:none"
         id="rect5494-9"
         width="733.61841"
         height="35.230263"
         x="-4515.4102"
         y="1103.3286"
         ry="17.615131" />
      <rect
         style="opacity:1;fill:#f2f2f2;fill-opacity:1;stroke:none;stroke-width:10.16294289;stroke-miterlimit:4;stroke-dasharray:none"
         id="rect5494-9-7"
         width="197.61514"
         height="35.230263"
         x="-3708.8152"
         y="1103.3286"
         ry="17.615131" />
      <rect
         style="opacity:1;fill:#f2f2f2;fill-opacity:1;stroke:none;stroke-width:19.58143234;stroke-miterlimit:4;stroke-dasharray:none"
         id="rect5494-9-4"
         width="733.61841"
         height="35.230263"
         x="-3896.1111"
         y="1196.3585"
         ry="17.615131" />
      <rect
         style="opacity:1;fill:#f2f2f2;fill-opacity:1;stroke:none;stroke-width:10.16294289;stroke-miterlimit:4;stroke-dasharray:none"
         id="rect5494-9-7-2"
         width="197.61514"
         height="35.230263"
         x="-4770.5029"
         y="1103.25"
         ry="17.615131" />
      <rect
         style="opacity:1;fill:#f2f2f2;fill-opacity:1;stroke:none;stroke-width:19.58143234;stroke-miterlimit:4;stroke-dasharray:none"
         id="rect5494-9-3"
         width="733.61841"
         height="35.230263"
         x="-4989.5073"
         y="1193.842"
         ry="17.615131" />
      <rect
         style="opacity:1;fill:#f2f2f2;fill-opacity:1;stroke:none;stroke-width:10.16294289;stroke-miterlimit:4;stroke-dasharray:none"
         id="rect5494-9-7-4"
         width="197.61514"
         height="35.230263"
         x="-4182.9121"
         y="1193.842"
         ry="17.615131" />
    </g>
    <circle
       r="48.083263"
       cy="766.04456"
       cx="313.95541"
       id="path5802"
       style="opacity:0.43000004;fill:url(#radialGradient5812);fill-opacity:1;stroke:none;stroke-width:5.31008005;stroke-miterlimit:4;stroke-dasharray:none" />
    <circle
       r="48.083263"
       cy="228"
       cx="1880"
       id="path5802-3"
       style="opacity:0.43000004;fill:url(#radialGradient5812-7);fill-opacity:1;stroke:none;stroke-width:5.31008005;stroke-miterlimit:4;stroke-dasharray:none" />
    <circle
       r="48.083263"
       cy="1102"
       cx="1058"
       id="path5802-2"
       style="opacity:0.43000004;fill:url(#radialGradient5812-1);fill-opacity:1;stroke:none;stroke-width:5.31008005;stroke-miterlimit:4;stroke-dasharray:none" />
    <circle
       r="19.445438"
       cy="235.37585"
       cx="798.63782"
       id="path5802-0"
       style="opacity:0.43000004;fill:url(#radialGradient5812-72);fill-opacity:1;stroke:none;stroke-width:2.14745903;stroke-miterlimit:4;stroke-dasharray:none" />
  </g>
</svg>
